<mxfile host="app.diagrams.net" modified="2021-11-22T02:31:08.995Z" agent="5.0 (Windows NT 10.0; Win64; x64) AppleWebKit/537.36 (KHTML, like Gecko) Chrome/96.0.4664.45 Safari/537.36" etag="k0vcnbb8Ld7g46sn6g1M" version="15.8.3" type="github">
  <diagram id="0s8cTg6v9soxQN45e6xL" name="Page-1">
    <mxGraphModel dx="1209" dy="652" grid="1" gridSize="10" guides="1" tooltips="1" connect="1" arrows="1" fold="1" page="1" pageScale="1" pageWidth="827" pageHeight="1169" math="0" shadow="0">
      <root>
        <mxCell id="0" />
        <mxCell id="1" parent="0" />
        <mxCell id="AEV82TeRLSni-RmIB6BL-1" value="Network programming" style="rounded=1;whiteSpace=wrap;html=1;fillColor=#d5e8d4;strokeColor=#82b366;fontStyle=1" parent="1" vertex="1">
          <mxGeometry x="40" y="200" width="190" height="60" as="geometry" />
        </mxCell>
        <mxCell id="AEV82TeRLSni-RmIB6BL-2" value="HTTP 1.1&lt;br&gt;HTTP 2&lt;br&gt;HTTP 3&lt;br&gt;的实现" style="rounded=1;whiteSpace=wrap;html=1;fillColor=#d5e8d4;strokeColor=#82b366;fontStyle=1" parent="1" vertex="1">
          <mxGeometry x="270" y="10" width="190" height="60" as="geometry" />
        </mxCell>
        <mxCell id="AEV82TeRLSni-RmIB6BL-3" value="c语言实践网络编程&lt;br&gt;全部转化成go版本" style="rounded=1;whiteSpace=wrap;html=1;fillColor=#d5e8d4;strokeColor=#82b366;fontStyle=1" parent="1" vertex="1">
          <mxGeometry x="270" y="320" width="190" height="60" as="geometry" />
        </mxCell>
        <mxCell id="AEV82TeRLSni-RmIB6BL-4" value="websocket的实现" style="rounded=1;whiteSpace=wrap;html=1;fillColor=#d5e8d4;strokeColor=#82b366;fontStyle=1" parent="1" vertex="1">
          <mxGeometry x="270" y="160" width="190" height="60" as="geometry" />
        </mxCell>
        <mxCell id="AEV82TeRLSni-RmIB6BL-5" value="c语言开发network security工具&lt;br&gt;转为go版本" style="rounded=1;whiteSpace=wrap;html=1;fillColor=#d5e8d4;strokeColor=#82b366;fontStyle=1" parent="1" vertex="1">
          <mxGeometry x="270" y="400" width="190" height="60" as="geometry" />
        </mxCell>
        <mxCell id="AEV82TeRLSni-RmIB6BL-6" value="TCP/IP实现，老印度的视频教程" style="rounded=1;whiteSpace=wrap;html=1;fillColor=#d5e8d4;strokeColor=#82b366;fontStyle=1" parent="1" vertex="1">
          <mxGeometry x="270" y="240" width="190" height="60" as="geometry" />
        </mxCell>
        <mxCell id="YZEgH8k0upVyW_02mmYO-1" value="HTTPs&lt;br&gt;的实现" style="rounded=1;whiteSpace=wrap;html=1;fillColor=#d5e8d4;strokeColor=#82b366;fontStyle=1" vertex="1" parent="1">
          <mxGeometry x="270" y="80" width="190" height="60" as="geometry" />
        </mxCell>
      </root>
    </mxGraphModel>
  </diagram>
</mxfile>
